HIERARCHY
ROOT Hips
{
  OFFSET 5.80788e-005 67.184 3.4734
  CHANNELS 6 Xposition Yposition Zposition Zrotation Xrotation Yrotation
  JOINT Chest
  {
    OFFSET 0 8.7983 -4.7612
    CHANNELS 6 Xposition Yposition Zposition Zrotation Xrotation Yrotation
    JOINT Chest2
    {
      OFFSET 0 8.0291 0.4195
      CHANNELS 6 Xposition Yposition Zposition Zrotation Xrotation Yrotation
      JOINT Chest3
      {
        OFFSET 0 9.9351 -2.2114
        CHANNELS 6 Xposition Yposition Zposition Zrotation Xrotation Yrotation
        JOINT Neck
        {
          OFFSET 0 22.3885 -0.4656
          CHANNELS 6 Xposition Yposition Zposition Zrotation Xrotation Yrotation
          JOINT Head
          {
            OFFSET -0.0001 12.643 3.4389
            CHANNELS 6 Xposition Yposition Zposition Zrotation Xrotation Yrotation
            End Site
            {
              OFFSET 0.0001 17.6655 0.5274
            }
          }
        }
        JOINT LeftCollar
        {
          OFFSET 2.2603 21.606 7.4023
          CHANNELS 6 Xposition Yposition Zposition Zrotation Xrotation Yrotation
          JOINT LeftShoulder
          {
            OFFSET 13.5163 -1.1332 -5.0146
            CHANNELS 6 Xposition Yposition Zposition Zrotation Xrotation Yrotation
            JOINT LeftElbow
            {
              OFFSET -0.0995 -28.05 -0.2431
              CHANNELS 6 Xposition Yposition Zposition Zrotation Xrotation Yrotation
              JOINT LeftWrist
              {
                OFFSET 0.0679 -23.3996 -0.1402
                CHANNELS 6 Xposition Yposition Zposition Zrotation Xrotation Yrotation
                JOINT LeftFinger1
                {
                  OFFSET 0.7932 -9.069 2.5189
                  CHANNELS 6 Xposition Yposition Zposition Zrotation Xrotation Yrotation
                  JOINT LeftFinger11
                  {
                    OFFSET -0.8272 -3.3923 0.5977
                    CHANNELS 6 Xposition Yposition Zposition Zrotation Xrotation Yrotation
                    JOINT LeftFinger12
                    {
                      OFFSET -0.5649 -2.3158 0.4082
                      CHANNELS 6 Xposition Yposition Zposition Zrotation Xrotation Yrotation
                      End Site
                      {
                        OFFSET -0.4919 -1.6479 0.2673
                      }
                    }
                  }
                }
                JOINT LeftFinger2
                {
                  OFFSET 0.9159 -9.2044 0.2193
                  CHANNELS 6 Xposition Yposition Zposition Zrotation Xrotation Yrotation
                  JOINT LeftFinger21
                  {
                    OFFSET 0.0117 -4.1944 -0.0248
                    CHANNELS 6 Xposition Yposition Zposition Zrotation Xrotation Yrotation
                    JOINT LeftFinger22
                    {
                      OFFSET 0.0071 -2.3249 -0.0142
                      CHANNELS 6 Xposition Yposition Zposition Zrotation Xrotation Yrotation
                      End Site
                      {
                        OFFSET -0.1475 -2.0882 0.0028
                      }
                    }
                  }
                }
                JOINT LeftFinger3
                {
                  OFFSET 0.6113 -8.7231 -2.0637
                  CHANNELS 6 Xposition Yposition Zposition Zrotation Xrotation Yrotation
                  JOINT LeftFinger31
                  {
                    OFFSET -0.1927 -3.8059 -0.2383
                    CHANNELS 6 Xposition Yposition Zposition Zrotation Xrotation Yrotation
                    JOINT LeftFinger32
                    {
                      OFFSET -0.1091 -2.1688 -0.1362
                      CHANNELS 6 Xposition Yposition Zposition Zrotation Xrotation Yrotation
                      End Site
                      {
                        OFFSET -0.2358 -1.9176 -0.0906
                      }
                    }
                  }
                }
                JOINT LeftFinger4
                {
                  OFFSET -0.6151 -8.0947 -3.5641
                  CHANNELS 6 Xposition Yposition Zposition Zrotation Xrotation Yrotation
                  JOINT LeftFinger41
                  {
                    OFFSET -0.4882 -2.341 -0.6462
                    CHANNELS 6 Xposition Yposition Zposition Zrotation Xrotation Yrotation
                    JOINT LeftFinger42
                    {
                      OFFSET -0.3575 -1.7167 -0.4742
                      CHANNELS 6 Xposition Yposition Zposition Zrotation Xrotation Yrotation
                      End Site
                      {
                        OFFSET -0.4187 -1.5237 -0.3496
                      }
                    }
                  }
                }
                JOINT LeftFinger0
                {
                  OFFSET -1.42 -1.8761 1.4223
                  CHANNELS 6 Xposition Yposition Zposition Zrotation Xrotation Yrotation
                  JOINT LeftFinger01
                  {
                    OFFSET -1.1471 -3.4929 2.6334
                    CHANNELS 6 Xposition Yposition Zposition Zrotation Xrotation Yrotation
                    JOINT LeftFinger02
                    {
                      OFFSET -0.823 -2.3 1.6571
                      CHANNELS 6 Xposition Yposition Zposition Zrotation Xrotation Yrotation
                      End Site
                      {
                        OFFSET -0.5822 -1.6914 1.1582
                      }
                    }
                  }
                }
              }
            }
          }
        }
        JOINT RightCollar
        {
          OFFSET -2.2603 21.606 7.4023
          CHANNELS 6 Xposition Yposition Zposition Zrotation Xrotation Yrotation
          JOINT RightShoulder
          {
            OFFSET -13.5187 -1.1334 -5.0155
            CHANNELS 6 Xposition Yposition Zposition Zrotation Xrotation Yrotation
            JOINT RightElbow
            {
              OFFSET 0.0994 -28.0499 -0.2431
              CHANNELS 6 Xposition Yposition Zposition Zrotation Xrotation Yrotation
              JOINT RightWrist
              {
                OFFSET -0.0679 -23.3996 -0.1402
                CHANNELS 6 Xposition Yposition Zposition Zrotation Xrotation Yrotation
                JOINT RightFinger1
                {
                  OFFSET -0.7932 -9.0691 2.5189
                  CHANNELS 6 Xposition Yposition Zposition Zrotation Xrotation Yrotation
                  JOINT RightFinger11
                  {
                    OFFSET 0.8272 -3.3923 0.5977
                    CHANNELS 6 Xposition Yposition Zposition Zrotation Xrotation Yrotation
                    JOINT RightFinger12
                    {
                      OFFSET 0.565 -2.3158 0.4082
                      CHANNELS 6 Xposition Yposition Zposition Zrotation Xrotation Yrotation
                      End Site
                      {
                        OFFSET 0.4919 -1.6479 0.2673
                      }
                    }
                  }
                }
                JOINT RightFinger2
                {
                  OFFSET -0.916 -9.2044 0.2193
                  CHANNELS 6 Xposition Yposition Zposition Zrotation Xrotation Yrotation
                  JOINT RightFinger21
                  {
                    OFFSET -0.0117 -4.1944 -0.0248
                    CHANNELS 6 Xposition Yposition Zposition Zrotation Xrotation Yrotation
                    JOINT RightFinger22
                    {
                      OFFSET -0.0071 -2.3249 -0.0142
                      CHANNELS 6 Xposition Yposition Zposition Zrotation Xrotation Yrotation
                      End Site
                      {
                        OFFSET 0.1475 -2.0882 0.0028
                      }
                    }
                  }
                }
                JOINT RightFinger3
                {
                  OFFSET -0.6113 -8.7231 -2.0637
                  CHANNELS 6 Xposition Yposition Zposition Zrotation Xrotation Yrotation
                  JOINT RightFinger31
                  {
                    OFFSET 0.1927 -3.8059 -0.2383
                    CHANNELS 6 Xposition Yposition Zposition Zrotation Xrotation Yrotation
                    JOINT RightFinger32
                    {
                      OFFSET 0.1091 -2.1688 -0.1362
                      CHANNELS 6 Xposition Yposition Zposition Zrotation Xrotation Yrotation
                      End Site
                      {
                        OFFSET 0.2358 -1.9176 -0.0906
                      }
                    }
                  }
                }
                JOINT RightFinger4
                {
                  OFFSET 0.6151 -8.0947 -3.564
                  CHANNELS 6 Xposition Yposition Zposition Zrotation Xrotation Yrotation
                  JOINT RightFinger41
                  {
                    OFFSET 0.4882 -2.341 -0.6462
                    CHANNELS 6 Xposition Yposition Zposition Zrotation Xrotation Yrotation
                    JOINT RightFinger42
                    {
                      OFFSET 0.3574 -1.7166 -0.4742
                      CHANNELS 6 Xposition Yposition Zposition Zrotation Xrotation Yrotation
                      End Site
                      {
                        OFFSET 0.4187 -1.5237 -0.3496
                      }
                    }
                  }
                }
                JOINT RightFinger0
                {
                  OFFSET 1.4199 -1.8761 1.4221
                  CHANNELS 6 Xposition Yposition Zposition Zrotation Xrotation Yrotation
                  JOINT RightFinger01
                  {
                    OFFSET 1.1472 -3.4929 2.6336
                    CHANNELS 6 Xposition Yposition Zposition Zrotation Xrotation Yrotation
                    JOINT RightFinger02
                    {
                      OFFSET 0.8229 -2.3 1.6571
                      CHANNELS 6 Xposition Yposition Zposition Zrotation Xrotation Yrotation
                      End Site
                      {
                        OFFSET 0.5822 -1.6914 1.1582
                      }
                    }
                  }
                }
              }
            }
          }
        }
      }
    }
  }
  JOINT RightHip
  {
    OFFSET -9.412 3.9771 -0.7758
    CHANNELS 6 Xposition Yposition Zposition Zrotation Xrotation Yrotation
    JOINT RightKnee
    {
      OFFSET -0.7531 -40.938 0
      CHANNELS 6 Xposition Yposition Zposition Zrotation Xrotation Yrotation
      JOINT RightAnkle
      {
        OFFSET 0 -40.1986 0
        CHANNELS 6 Xposition Yposition Zposition Zrotation Xrotation Yrotation
        JOINT RightToe
        {
          OFFSET 0 -4.4182 9.239
          CHANNELS 6 Xposition Yposition Zposition Zrotation Xrotation Yrotation
          End Site
          {
            OFFSET 0 0 6.1981
          }
        }
      }
    }
  }
  JOINT LeftHip
  {
    OFFSET 9.4119 3.9773 -0.7758
    CHANNELS 6 Xposition Yposition Zposition Zrotation Xrotation Yrotation
    JOINT LeftKnee
    {
      OFFSET 0.7532 -40.9383 0
      CHANNELS 6 Xposition Yposition Zposition Zrotation Xrotation Yrotation
      JOINT LeftAnkle
      {
        OFFSET 0 -40.1986 0
        CHANNELS 6 Xposition Yposition Zposition Zrotation Xrotation Yrotation
        JOINT LeftToe
        {
          OFFSET 0 -4.4182 9.239
          CHANNELS 6 Xposition Yposition Zposition Zrotation Xrotation Yrotation
          End Site
          {
            OFFSET 0 0 6.1981
          }
        }
      }
    }
  }
}
MOTION
Frames:	4
Frame Time:	0.0333333
5.80788e-005 67.184 3.4734 0 0 -0 0 8.7983 -4.7612 0 0 -0 0 8.0291 0.4195 0 0 -0 0 9.9351 -2.2114 0 0 -0 0 22.3885 -0.4656 0 0 -0 -0.0001 12.643 3.4389 0 0 -0 2.2603 21.606 7.4023 0 0 -12.5014 13.5163 -1.1332 -5.0146 88.1196 14.2451 10.6914 -0.0995 -28.05 -0.2431 -0.00160068 -0.00239207 0.000740045 0.0679 -23.3996 -0.1402 -8.4365e-005 7.00714e-005 -9.52055e-007 0.7932 -9.069 2.5189 9.93923e-017 -1.98785e-016 -1.59028e-015 -0.8272 -3.3923 0.5977 9.93923e-017 -5.96354e-016 -1.59028e-015 -0.5649 -2.3158 0.4082 -9.93923e-017 -5.96354e-016 -1.59028e-015 0.9159 -9.2044 0.2193 9.93923e-017 -1.98785e-016 -1.59028e-015 0.0117 -4.1944 -0.0248 -0.0128176 0.00232552 8.52707e-005 0.0071 -2.3249 -0.0142 9.93923e-017 5.96354e-016 -0 0.6113 -8.7231 -2.0637 9.93923e-017 -1.98785e-016 -1.59028e-015 -0.1927 -3.8059 -0.2383 -0.0160551 0.00299681 0.000857156 -0.1091 -2.1688 -0.1362 -2.48481e-016 0 3.18055e-015 -0.6151 -8.0947 -3.5641 9.93923e-017 -1.98785e-016 -1.59028e-015 -0.4882 -2.341 -0.6462 -0.0125865 0.0031206 0.00282719 -0.3575 -1.7167 -0.4742 0 1.98785e-016 -0 -1.42 -1.8761 1.4223 9.93923e-017 -1.98785e-016 -1.59028e-015 -1.1471 -3.4929 2.6334 9.93923e-017 -5.96354e-016 -1.59028e-015 -0.823 -2.3 1.6571 -9.93923e-017 -5.96354e-016 -1.59028e-015 -2.2603 21.606 7.4023 -0.865644 0.16582 7.03859 -13.5187 -1.1334 -5.0155 -88.0329 10.2057 -10.5567 0.0994 -28.0499 -0.2431 0.0015593 -0.00248883 -0.000788628 -0.0679 -23.3996 -0.1402 7.87605e-005 4.10553e-005 1.24965e-005 -0.7932 -9.0691 2.5189 -3.97569e-016 -7.95139e-016 3.18055e-015 0.8272 -3.3923 0.5977 -1.98785e-016 -3.97569e-016 3.18055e-015 0.565 -2.3158 0.4082 -1.98785e-016 0 3.18055e-015 -0.916 -9.2044 0.2193 -3.97569e-016 -7.95139e-016 3.18055e-015 -0.0117 -4.1944 -0.0248 0.0129473 0.00231697 -8.70038e-005 -0.0071 -2.3249 -0.0142 9.93923e-017 -7.95139e-016 1.59028e-015 -0.6113 -8.7231 -2.0637 -3.97569e-016 -7.95139e-016 3.18055e-015 0.1927 -3.8059 -0.2383 0.0163314 0.00303369 -0.000872333 0.1091 -2.1688 -0.1362 3.97569e-016 7.95139e-016 -3.18055e-015 0.6151 -8.0947 -3.564 -3.97569e-016 -7.95139e-016 3.18055e-015 0.4882 -2.341 -0.6462 0.0145763 0.00367772 -0.00326275 0.3574 -1.7166 -0.4742 9.93923e-017 -3.97569e-016 -0 1.4199 -1.8761 1.4221 -3.97569e-016 -7.95139e-016 3.18055e-015 1.1472 -3.4929 2.6336 -1.98785e-016 -3.97569e-016 3.18055e-015 0.8229 -2.3 1.6571 -1.98785e-016 0 3.18055e-015 -9.412 3.9771 -0.7758 3.42485 1.36937 -0.0640303 -0.7531 -40.938 0 0.000136572 0.69354 0.00145564 1.77636e-015 -40.1986 -1.11022e-016 -3.42573 -2.06297 -0.0607933 8.88178e-016 -4.4182 9.239 -3.19502e-024 0 -1.48106e-024 9.4119 3.9773 -0.7758 -3.42498 1.36123 0.0639712 0.7532 -40.9383 2.22045e-016 -6.769e-005 0.712612 -0.0012277 8.88179e-016 -40.1986 0 3.42582 -2.07388 0.0612819 -8.88178e-016 -4.4182 9.239 2.55305e-023 0 -2.31416e-026 
-25.2599 1.69139 -1.32226 -6.28251e-015 6.97819e-015 173.994 3.55271e-015 8.7983 -4.7612 0.965813 -0.0155412 -5.80044 0 8.0291 0.4195 1.92512 -0.128606 -11.5998 -3.55271e-015 9.9351 -2.2114 1.92512 -0.128607 -11.5999 0 22.3885 -0.4656 -3.20294e-006 -13.0004 -5.23542e-005 -0.0001 12.643 3.4389 13.328 -12.6628 -27.0305 2.2603 21.606 7.4023 -47.4805 10.5955 -32.3982 13.5163 -1.1332 -5.0146 57.7189 -5.47751 6.82348 -0.0995 -28.05 -0.2431 -39.1412 -55.2788 -18.4546 0.0679 -23.3996 -0.1402 -6.88219 1.25872 -0.138186 0.7932 -9.069 2.5189 -1.48888e-006 -2.36185e-005 4.43884e-006 -0.8272 -3.3923 0.5977 1.59028e-015 -7.95139e-015 -0 -0.5649 -2.3158 0.4082 2.11475e-006 3.36031e-007 8.42779e-007 0.9159 -9.2044 0.2193 -1.48888e-006 -2.36185e-005 4.43884e-006 0.0117 -4.1944 -0.0248 -0.0128299 0.00231418 7.36055e-005 0.0071 -2.3249 -0.0142 3.77094e-006 5.37072e-006 1.14986e-006 0.6113 -8.7231 -2.0637 -1.48888e-006 -2.36185e-005 4.43884e-006 -0.1927 -3.8059 -0.2383 -0.0160194 0.00301499 0.00085159 -0.1091 -2.1688 -0.1362 3.31385e-006 3.73548e-006 6.14023e-007 -0.6151 -8.0947 -3.5641 -1.48888e-006 -2.36185e-005 4.43884e-006 -0.4882 -2.341 -0.6462 -0.0125833 0.00317646 0.00282295 -0.3575 -1.7167 -0.4742 -0 -8.74653e-015 -0 -1.42 -1.8761 1.4223 -1.48888e-006 -2.36185e-005 4.43884e-006 -1.1471 -3.4929 2.6334 1.59028e-015 -7.95139e-015 -0 -0.823 -2.3 1.6571 2.11475e-006 3.36031e-007 8.42779e-007 -2.2603 21.606 7.4023 13.2811 0.217353 23.6225 -13.5187 -1.1334 -5.0155 -83.3444 -11.3255 -10.4999 0.0994 -28.0499 -0.2431 32.984 -40.5908 14.1671 -0.0679 -23.3996 -0.1402 21.2114 -36.6808 -1.45301 -0.7932 -9.0691 2.5189 1.01261e-005 4.31764e-006 5.05906e-006 0.8272 -3.3923 0.5977 -1.59028e-015 -1.19271e-015 -5.81445e-015 0.565 -2.3158 0.4082 -1.59028e-015 -1.59028e-015 -1.26228e-014 -0.916 -9.2044 0.2193 1.01261e-005 4.31764e-006 5.05906e-006 -0.0117 -4.1944 -0.0248 0.0129839 0.00232691 -8.91278e-005 -0.0071 -2.3249 -0.0142 -3.18055e-015 1.19271e-015 5.71506e-015 -0.6113 -8.7231 -2.0637 1.01261e-005 4.31764e-006 5.05906e-006 0.1927 -3.8059 -0.2383 0.016348 0.00303217 -0.000873758 0.1091 -2.1688 -0.1362 -4.68978e-032 7.95139e-016 3.37934e-015 0.6151 -8.0947 -3.564 1.01261e-005 4.31764e-006 5.05906e-006 0.4882 -2.341 -0.6462 0.0145647 0.00366864 -0.00326098 0.3574 -1.7166 -0.4742 -1.46555e-031 -1.98785e-015 -4.22417e-015 1.4199 -1.8761 1.4221 1.01261e-005 4.31764e-006 5.05906e-006 1.1472 -3.4929 2.6336 -1.59028e-015 -1.19271e-015 -5.81445e-015 0.8229 -2.3 1.6571 -1.59028e-015 -1.59028e-015 -1.26228e-014 -9.412 3.9771 -0.7758 -167.133 -77.2713 -169.017 -0.7531 -40.938 -1.77636e-015 4.29182 53.2715 -4.7406 0 -40.1986 7.10543e-015 -18.3239 16.7193 6.15608 3.55271e-015 -4.4182 9.239 1.59028e-015 -3.18055e-015 -0 9.4119 3.9773 -0.7758 90.9348 -68.601 121.303 0.7532 -40.9383 0 -50.2633 45.3273 40.9726 0 -40.1986 0 56.7022 23.5006 -44.1429 0 -4.4182 9.239 -2.18408e-007 1.30905e-006 -2.57673e-006 
-25.2599 1.69139 -1.32226 -6.28251e-015 6.97819e-015 173.994 3.55271e-015 8.7983 -4.7612 0.965813 -0.0155412 -5.80044 0 8.0291 0.4195 1.92512 -0.128606 -11.5998 -3.55271e-015 9.9351 -2.2114 1.92512 -0.128607 -11.5999 0 22.3885 -0.4656 0.00673421 -12.9315 0.109974 -0.0001 12.643 3.4389 13.328 -12.6628 -27.0305 2.2603 21.606 7.4023 -47.4805 10.5955 -32.3982 13.5163 -1.1332 -5.0146 57.7188 -5.47742 6.82346 -0.0995 -28.05 -0.2431 -39.1413 -55.2789 -18.4547 0.0679 -23.3996 -0.1402 -6.88218 1.25871 -0.138172 0.7932 -9.06901 2.5189 -2.85483e-006 -1.6722e-005 -8.31848e-006 -0.8272 -3.3923 0.5977 -0 -2.18663e-015 -0 -0.5649 -2.3158 0.4082 -1.48969e-031 -5.36719e-015 -1.59028e-015 0.9159 -9.20441 0.2193 -2.85483e-006 -1.6722e-005 -8.31848e-006 0.0117 -4.1944 -0.0248 -0.0128106 0.00239587 9.10448e-005 0.0071 -2.3249 -0.0142 -1.59028e-015 5.96354e-016 1.59028e-015 0.6113 -8.72311 -2.0637 -2.85483e-006 -1.6722e-005 -8.31848e-006 -0.1927 -3.8059 -0.2383 -0.016026 0.0029903 0.00085292 -0.1091 -2.1688 -0.1362 1.59028e-015 1.59028e-015 1.59028e-015 -0.6151 -8.09471 -3.5641 -2.85483e-006 -1.6722e-005 -8.31848e-006 -0.4882 -2.341 -0.6462 -0.012577 0.00318044 0.00282584 -0.3575 -1.7167 -0.4742 -3.18055e-015 -2.78299e-015 -0 -1.42 -1.8761 1.4223 -2.85483e-006 -1.6722e-005 -8.31848e-006 -1.1471 -3.4929 2.6334 -0 -2.18663e-015 -0 -0.823 -2.3 1.6571 -1.48969e-031 -5.36719e-015 -1.59028e-015 -2.2603 21.606 7.4023 13.2811 0.217353 23.6225 -13.5187 -1.1334 -5.0155 -83.3445 -11.3255 -10.4999 0.0994 -28.0499 -0.2431 32.9841 -40.5908 14.1671 -0.0679 -23.3996 -0.1402 21.1062 -36.5248 -1.86328 -0.7932 -9.06911 2.5189 3.44836e-032 7.95139e-016 -2.48481e-015 0.8272 -3.3923 0.5977 1.21382e-031 7.95139e-016 -8.74653e-015 0.565 -2.3158 0.4082 1.59028e-015 -3.97569e-016 -8.54774e-015 -0.916 -9.20441 0.2193 3.44836e-032 7.95139e-016 -2.48481e-015 -0.0117 -4.1944 -0.0248 0.0129311 0.00231371 -8.27579e-005 -0.0071 -2.3249 -0.0142 -3.18055e-015 0 4.82053e-015 -0.6113 -8.7231 -2.0637 3.44836e-032 7.95139e-016 -2.48481e-015 0.1927 -3.8059 -0.2383 0.0163204 0.00302685 -0.000872281 0.1091 -2.1688 -0.1362 1.59028e-015 7.95139e-016 -2.78299e-015 0.6151 -8.0947 -3.564 3.44836e-032 7.95139e-016 -2.48481e-015 0.4882 -2.341 -0.6462 0.0145991 0.00367346 -0.0032652 0.3574 -1.7166 -0.4742 2.71453e-006 -1.19699e-006 -6.02797e-006 1.4199 -1.8761 1.4221 3.44836e-032 7.95139e-016 -2.48481e-015 1.1472 -3.4929 2.6336 1.21382e-031 7.95139e-016 -8.74653e-015 0.8229 -2.3 1.6571 1.59028e-015 -3.97569e-016 -8.54774e-015 -9.412 3.9771 -0.7758 -167.133 -77.2713 -169.017 -0.7531 -40.938 -1.77636e-015 4.29182 53.2715 -4.7406 0 -40.1986 7.10543e-015 -18.3239 16.7193 6.15608 3.55271e-015 -4.4182 9.239 1.59028e-015 -3.18055e-015 -0 9.4119 3.9773 -0.7758 90.9349 -68.601 121.303 0.7532 -40.9383 0 -50.2633 45.3273 40.9727 3.55271e-015 -40.1986 0 56.7022 23.5006 -44.1429 -7.10543e-015 -4.4182 9.239 -6.69088e-007 -1.05973e-006 -1.55068e-006 
-25.2599 1.69139 -1.32226 -6.28251e-015 6.97819e-015 173.994 3.55271e-015 8.7983 -4.7612 0.965813 -0.0155412 -5.80044 0 8.0291 0.4195 1.92512 -0.128606 -11.5998 -3.55271e-015 9.9351 -2.2114 1.92512 -0.128607 -11.5999 0 22.3885 -0.4656 0.0133337 -12.8625 0.219979 -0.0001 12.643 3.4389 13.328 -12.6628 -27.0305 2.2603 21.606 7.4023 -47.4805 10.5955 -32.3982 13.5163 -1.1332 -5.0146 57.7188 -5.47742 6.82346 -0.0995 -28.05 -0.2431 -39.1413 -55.2789 -18.4547 0.0679 -23.3996 -0.1402 -6.88218 1.25871 -0.138172 0.7932 -9.06901 2.5189 -2.85483e-006 -1.6722e-005 -8.31848e-006 -0.8272 -3.3923 0.5977 -0 -2.18663e-015 -0 -0.5649 -2.3158 0.4082 -1.48969e-031 -5.36719e-015 -1.59028e-015 0.9159 -9.20441 0.2193 -2.85483e-006 -1.6722e-005 -8.31848e-006 0.0117 -4.1944 -0.0248 -0.0128106 0.00239587 9.10448e-005 0.0071 -2.3249 -0.0142 -1.59028e-015 5.96354e-016 1.59028e-015 0.6113 -8.72311 -2.0637 -2.85483e-006 -1.6722e-005 -8.31848e-006 -0.1927 -3.8059 -0.2383 -0.016026 0.0029903 0.00085292 -0.1091 -2.1688 -0.1362 1.59028e-015 1.59028e-015 1.59028e-015 -0.6151 -8.09471 -3.5641 -2.85483e-006 -1.6722e-005 -8.31848e-006 -0.4882 -2.341 -0.6462 -0.012577 0.00318044 0.00282584 -0.3575 -1.7167 -0.4742 -3.18055e-015 -2.78299e-015 -0 -1.42 -1.8761 1.4223 -2.85483e-006 -1.6722e-005 -8.31848e-006 -1.1471 -3.4929 2.6334 -0 -2.18663e-015 -0 -0.823 -2.3 1.6571 -1.48969e-031 -5.36719e-015 -1.59028e-015 -2.2603 21.606 7.4023 13.2811 0.217353 23.6225 -13.5187 -1.1334 -5.0155 -83.3445 -11.3255 -10.4999 0.0994 -28.0499 -0.2431 32.9841 -40.5908 14.1671 -0.0679 -23.3996 -0.1402 21.0025 -36.3681 -2.27289 -0.7932 -9.06911 2.5189 -1.59028e-015 1.98785e-015 -3.23025e-015 0.8272 -3.3923 0.5977 -1.59028e-015 -3.97569e-016 -5.96354e-015 0.565 -2.3158 0.4082 -1.59028e-015 -7.95139e-016 -9.14409e-015 -0.916 -9.2044 0.2193 -1.59028e-015 1.98785e-015 -3.23025e-015 -0.0117 -4.1944 -0.0248 0.012944 0.00232029 -8.33852e-005 -0.0071 -2.3249 -0.0142 -4.77083e-015 -3.97569e-016 4.47266e-016 -0.6113 -8.7231 -2.0637 -1.59028e-015 1.98785e-015 -3.23025e-015 0.1927 -3.8059 -0.2383 0.0163444 0.00303357 -0.00088185 0.1091 -2.1688 -0.1362 3.13321e-006 -1.20487e-005 -8.98694e-006 0.6151 -8.0947 -3.564 -1.59028e-015 1.98785e-015 -3.23025e-015 0.4882 -2.341 -0.6462 0.0145878 0.00369317 -0.00326235 0.3574 -1.7166 -0.4742 3.18055e-015 1.59028e-015 -2.6339e-015 1.4199 -1.8761 1.4221 -1.59028e-015 1.98785e-015 -3.23025e-015 1.1472 -3.4929 2.6336 -1.59028e-015 -3.97569e-016 -5.96354e-015 0.8229 -2.3 1.6571 -1.59028e-015 -7.95139e-016 -9.14409e-015 -9.412 3.9771 -0.7758 -167.133 -77.2713 -169.017 -0.7531 -40.938 -1.77636e-015 4.29182 53.2715 -4.7406 0 -40.1986 7.10543e-015 -18.3239 16.7193 6.15608 3.55271e-015 -4.4182 9.239 1.59028e-015 -3.18055e-015 -0 9.4119 3.9773 -0.7758 90.9349 -68.601 121.303 0.7532 -40.9383 0 -50.2633 45.3273 40.9727 3.55271e-015 -40.1986 0 56.7022 23.5006 -44.1429 -7.10543e-015 -4.4182 9.239 -6.69088e-007 -1.05973e-006 -1.55068e-006 
